# Blender v2.79 (sub 0) OBJ File: ''
# www.blender.org
mtllib cilindro.mtl
o Circle
v 0.000000 -25.000000 -24.500000
v -4.779713 -25.000000 -24.029238
v -9.375745 -25.000000 -22.635048
v -13.611471 -25.000000 -20.371006
v -17.324116 -25.000000 -17.324116
v -20.371006 -25.000000 -13.611469
v -22.635048 -25.000000 -9.375744
v -24.029238 -25.000000 -4.779714
v -24.500000 -25.000000 -0.000002
v -24.029240 -25.000000 4.779710
v -22.635050 -25.000000 9.375740
v -20.371006 -25.000000 13.611469
v -17.324116 -25.000000 17.324116
v -13.611469 -25.000000 20.371006
v -9.375740 -25.000000 22.635052
v -4.779707 -25.000000 24.029240
v 0.000008 -25.000000 24.500000
v 4.779723 -25.000000 24.029238
v 9.375755 -25.000000 22.635044
v 13.611483 -25.000000 20.370998
v 17.324127 -25.000000 17.324106
v 20.371016 -25.000000 13.611456
v 22.635057 -25.000000 9.375726
v 24.029243 -25.000000 4.779692
v 24.500000 -25.000000 -0.000024
v 24.029234 -25.000000 -4.779738
v 22.635038 -25.000000 -9.375770
v 20.370989 -25.000000 -13.611496
v 17.324095 -25.000000 -17.324139
v 13.611444 -25.000000 -20.371023
v 9.375711 -25.000000 -22.635063
v 4.779676 -25.000000 -24.029245
v 0.000000 24.000000 -24.500000
v -4.779713 24.000000 -24.029238
v -9.375745 24.000000 -22.635048
v -13.611471 24.000000 -20.371006
v -17.324116 24.000000 -17.324116
v -20.371006 24.000000 -13.611469
v -22.635048 24.000000 -9.375744
v -24.029238 24.000000 -4.779714
v -24.500000 24.000000 -0.000002
v -24.029240 24.000000 4.779710
v -22.635050 24.000000 9.375740
v -20.371006 24.000000 13.611469
v -17.324116 24.000000 17.324116
v -13.611469 24.000000 20.371006
v -9.375740 24.000000 22.635052
v -4.779707 24.000000 24.029240
v 0.000008 24.000000 24.500000
v 4.779723 24.000000 24.029238
v 9.375755 24.000000 22.635044
v 13.611483 24.000000 20.370998
v 17.324127 24.000000 17.324106
v 20.371016 24.000000 13.611456
v 22.635057 24.000000 9.375726
v 24.029243 24.000000 4.779692
v 24.500000 24.000000 -0.000024
v 24.029234 24.000000 -4.779738
v 22.635038 24.000000 -9.375770
v 20.370989 24.000000 -13.611496
v 17.324095 24.000000 -17.324139
v 13.611444 24.000000 -20.371023
v 9.375711 24.000000 -22.635063
v 4.779676 24.000000 -24.029245
vn 0.0000 -1.0000 0.0000
vn 0.0000 1.0000 0.0000
vn 0.0980 0.0000 0.9952
vn -0.6344 0.0000 -0.7730
vn 0.2903 0.0000 -0.9569
vn 0.2903 0.0000 0.9569
vn -0.7730 0.0000 -0.6344
vn 0.0980 0.0000 -0.9952
vn 0.4714 0.0000 0.8819
vn -0.8819 0.0000 -0.4714
vn 0.6344 0.0000 0.7730
vn -0.9569 0.0000 -0.2903
vn 0.7730 0.0000 0.6344
vn -0.9952 0.0000 -0.0980
vn 0.8819 0.0000 0.4714
vn -0.9952 0.0000 0.0980
vn 0.9569 0.0000 0.2903
vn -0.9569 0.0000 0.2903
vn 0.9952 0.0000 0.0980
vn -0.8819 0.0000 0.4714
vn 0.9952 0.0000 -0.0980
vn -0.7730 0.0000 0.6344
vn 0.9569 0.0000 -0.2903
vn -0.6344 0.0000 0.7730
vn 0.8819 0.0000 -0.4714
vn -0.4714 0.0000 0.8819
vn -0.0980 0.0000 -0.9952
vn 0.7730 0.0000 -0.6344
vn -0.2903 0.0000 0.9569
vn -0.2903 0.0000 -0.9569
vn 0.6344 0.0000 -0.7730
vn -0.0980 0.0000 0.9952
vn -0.4714 0.0000 -0.8819
vn 0.4714 0.0000 -0.8819
usemtl None
s off
f 2//1 1//1 32//1 31//1 30//1 29//1 28//1 27//1 26//1 25//1 24//1 23//1 22//1 21//1 20//1 19//1 18//1 17//1 16//1 15//1 14//1 13//1 12//1 11//1 10//1 9//1 8//1 7//1 6//1 5//1 4//1 3//1
f 34//2 35//2 36//2 37//2 38//2 39//2 40//2 41//2 42//2 43//2 44//2 45//2 46//2 47//2 48//2 49//2 50//2 51//2 52//2 53//2 54//2 55//2 56//2 57//2 58//2 59//2 60//2 61//2 62//2 63//2 64//2 33//2
f 17//3 18//3 50//3 49//3
f 4//4 5//4 37//4 36//4
f 31//5 32//5 64//5 63//5
f 18//6 19//6 51//6 50//6
f 5//7 6//7 38//7 37//7
f 32//8 1//8 33//8 64//8
f 19//9 20//9 52//9 51//9
f 6//10 7//10 39//10 38//10
f 20//11 21//11 53//11 52//11
f 7//12 8//12 40//12 39//12
f 21//13 22//13 54//13 53//13
f 8//14 9//14 41//14 40//14
f 22//15 23//15 55//15 54//15
f 9//16 10//16 42//16 41//16
f 23//17 24//17 56//17 55//17
f 10//18 11//18 43//18 42//18
f 24//19 25//19 57//19 56//19
f 11//20 12//20 44//20 43//20
f 25//21 26//21 58//21 57//21
f 12//22 13//22 45//22 44//22
f 26//23 27//23 59//23 58//23
f 13//24 14//24 46//24 45//24
f 27//25 28//25 60//25 59//25
f 14//26 15//26 47//26 46//26
f 1//27 2//27 34//27 33//27
f 28//28 29//28 61//28 60//28
f 15//29 16//29 48//29 47//29
f 2//30 3//30 35//30 34//30
f 29//31 30//31 62//31 61//31
f 16//32 17//32 49//32 48//32
f 3//33 4//33 36//33 35//33
f 30//34 31//34 63//34 62//34
