# Blender v2.76 (sub 0) OBJ File: ''
# www.blender.org
mtllib multicubo_y_plano.mtl
o Cube.001
v 19.999990 -19.999996 -59.999966
v 19.999990 -20.000004 59.999969
v -19.999992 -20.000004 59.999962
v -19.999985 -19.999996 -59.999992
v 20.000002 20.000004 -59.999939
v -19.999990 20.000004 -59.999969
v -19.999998 19.999996 59.999950
v 19.999977 19.999996 60.000008
v 40.000004 39.999992 60.000038
v 40.000004 -40.000008 59.999969
v -40.000004 -40.000008 59.999954
v -40.000004 39.999992 59.999935
v -40.000004 40.000008 -59.999969
v -40.000004 -39.999992 -60.000011
v 40.000004 -39.999992 -59.999962
v 40.000004 40.000008 -59.999908
v -19.999989 -20.000000 -20.000015
v 19.999989 20.000000 -19.999966
v -19.999994 20.000000 -20.000008
v 19.999990 -20.000000 -19.999996
v 19.999983 20.000000 20.000019
v -19.999996 20.000000 19.999969
v 19.999990 -20.000000 19.999989
v -19.999990 -20.000000 19.999973
v -19.999990 -40.000000 19.999973
v -19.999989 -40.000000 -20.000015
v -19.999994 40.000000 -20.000006
v 19.999989 40.000000 -19.999964
v 19.999990 -40.000000 -19.999996
v 19.999983 40.000000 20.000021
v -19.999996 40.000000 19.999971
v 19.999990 -40.000000 19.999989
v -39.999992 -20.000000 19.999973
v -39.999989 -20.000000 -20.000015
v -39.999992 20.000000 -20.000008
v 39.999989 20.000000 -19.999966
v 39.999992 -20.000000 -19.999996
v 39.999985 20.000000 20.000019
v -39.999996 20.000000 19.999969
v 39.999992 -20.000000 19.999989
vn 0.577400 -0.577400 0.577400
vn 0.000000 -1.000000 -0.000000
vn -0.577400 -0.577400 0.577400
vn 0.577300 0.577400 0.577400
vn -0.577400 0.577300 0.577400
vn -0.000000 1.000000 0.000000
vn 0.577300 -0.577400 0.577400
vn 0.577400 0.577300 0.577400
vn 1.000000 0.000000 0.000000
vn 0.000000 0.000000 -1.000000
vn -0.577400 -0.577400 -0.577400
vn -0.577400 0.577400 -0.577400
vn -1.000000 -0.000000 -0.000000
vn -0.000000 -0.000000 1.000000
vn 0.000000 -0.707100 0.707100
vn 0.000000 0.707100 0.707100
vn 0.577400 0.577400 -0.577400
vn 0.577400 -0.577400 -0.577400
vn -0.577300 0.577400 -0.577400
vn 0.577400 0.577300 -0.577400
vn -0.577400 0.577400 0.577400
vn 0.000000 -0.707100 -0.707100
vn 0.000000 0.707100 -0.707100
vn -0.707100 0.000000 0.707100
vn 0.707100 0.000000 0.707100
vn -0.707100 0.000000 -0.707100
vn 0.707100 0.000000 -0.707100
usemtl Material.001
s 1
f 23//1 2//2 3//2 24//3
f 21//4 22//5 7//6 8//6
f 23//7 21//8 8//9 2//9
f 2//10 8//10 9//10 10//10
f 17//11 19//12 6//13 4//13
f 3//10 2//10 10//10 11//10
f 7//10 3//10 11//10 12//10
f 8//10 7//10 12//10 9//10
f 4//14 6//14 13//14 14//14
f 1//14 4//14 14//14 15//14
f 6//14 5//14 16//14 13//14
f 5//14 1//14 15//14 16//14
f 21//8 23//7 40//15 38//16
f 1//9 5//9 18//17 20//18
f 5//6 6//6 19//19 18//20
f 1//2 20//18 17//11 4//2
f 3//13 7//13 22//21 24//3
f 19//12 17//11 34//22 35//23
f 23//1 24//3 25//24 32//25
f 18//20 19//19 27//26 28//27
f 24//3 17//11 26//26 25//24
f 19//19 22//5 31//24 27//26
f 17//11 20//18 29//27 26//26
f 22//5 21//4 30//25 31//24
f 20//18 23//1 32//25 29//27
f 21//4 18//20 28//27 30//25
f 17//11 24//3 33//15 34//22
f 22//21 19//12 35//23 39//16
f 20//18 18//17 36//23 37//22
f 24//3 22//21 39//16 33//15
f 23//7 20//18 37//22 40//15
f 18//17 21//8 38//16 36//23
